<svg width="30" height="30" viewBox="0 0 30 30" xmlns="http://www.w3.org/2000/svg"><title>googleplus_F</title><path d="M15 30c8.284 0 15-6.716 15-15 0-8.284-6.716-15-15-15C6.716 0 0 6.716 0 15c0 8.284 6.716 15 15 15zM13.176 7.392c.144.112.312.26.504.444s.376.408.552.672c.176.264.328.572.456.924.128.352.192.752.192 1.2 0 .448-.056.84-.168 1.176a3.284 3.284 0 0 1-.456.9 4.627 4.627 0 0 1-.648.72c-.24.216-.488.42-.744.612-.16.16-.312.328-.456.504-.144.176-.216.4-.216.672s.072.484.216.636c.144.152.28.284.408.396l.864.672c.256.224.508.448.756.672.248.224.464.464.648.72.184.256.332.544.444.864.112.32.168.688.168 1.104 0 .56-.136 1.112-.408 1.656a4.368 4.368 0 0 1-1.2 1.452c-.528.424-1.188.768-1.98 1.032s-1.7.396-2.724.396c-.864 0-1.62-.096-2.268-.288-.648-.192-1.188-.448-1.62-.768-.432-.32-.752-.684-.96-1.092a2.79 2.79 0 0 1-.312-1.284c0-.432.132-.924.396-1.476.264-.552.748-1.036 1.452-1.452a5.515 5.515 0 0 1 1.188-.54c.424-.136.844-.244 1.26-.324.416-.08.808-.136 1.176-.168.368-.032.688-.056.96-.072a7.424 7.424 0 0 1-.492-.708c-.152-.248-.228-.556-.228-.924 0-.208.024-.38.072-.516.048-.136.104-.276.168-.42a6.227 6.227 0 0 1-.768.048c-.64 0-1.208-.108-1.704-.324a3.793 3.793 0 0 1-1.248-.852 3.632 3.632 0 0 1-.768-1.212 3.806 3.806 0 0 1-.264-1.38c0-.56.128-1.124.384-1.692A4.448 4.448 0 0 1 6.96 7.848c.688-.56 1.412-.92 2.172-1.08.76-.16 1.468-.24 2.124-.24H16.2l-1.536.864h-1.488zm-2.64 6.768c.304 0 .604-.064.9-.192.296-.128.54-.288.732-.48.272-.272.44-.576.504-.912.064-.336.096-.616.096-.84a5.87 5.87 0 0 0-.192-1.416A5.649 5.649 0 0 0 12 8.88a3.799 3.799 0 0 0-.948-1.116 2.054 2.054 0 0 0-1.308-.444c-.32 0-.632.072-.936.216a2.069 2.069 0 0 0-.744.576 2.08 2.08 0 0 0-.42.84 4.047 4.047 0 0 0-.108.936c0 .4.06.848.18 1.344.12.496.304.96.552 1.392.248.432.56.796.936 1.092.376.296.82.444 1.332.444zm3.552 7.056c0-.304-.052-.58-.156-.828a2.75 2.75 0 0 0-.468-.732 5.448 5.448 0 0 0-.816-.744 47.964 47.964 0 0 0-1.176-.864 1.558 1.558 0 0 0-.252-.024h-.3a11.752 11.752 0 0 0-.96.06 8.192 8.192 0 0 0-1.56.324c-.128.048-.308.124-.54.228A2.846 2.846 0 0 0 6.588 19.8c-.168.288-.252.648-.252 1.08 0 .864.38 1.568 1.14 2.112.76.544 1.788.816 3.084.816 1.152 0 2.028-.244 2.628-.732.6-.488.9-1.108.9-1.86zm13.464-10.104h-4.536v4.56h-1.44v-4.56h-4.56v-1.44h4.56V5.184h1.44v4.488h4.536v1.44z" fill="#2A9EF9" fill-rule="evenodd"/></svg>