<svg width="30" height="30" viewBox="0 0 30 30" xmlns="http://www.w3.org/2000/svg"><title>LinkedIn</title><path d="M15 30c8.284 0 15-6.716 15-15 0-8.284-6.716-15-15-15C6.716 0 0 6.716 0 15c0 8.284 6.716 15 15 15zM7 7.864c0-.538.189-.983.566-1.335.378-.353.87-.529 1.48-.529.608 0 1.095.176 1.462.529.366.352.553.797.56 1.335.008.53-.177.973-.555 1.33-.377.356-.874.534-1.49.534h-.022c-.6 0-1.085-.178-1.451-.535-.367-.356-.55-.799-.55-1.33zM7.209 22V11.199h3.628V22H7.21zm5.63 0c.014-2.9.022-5.25.022-7.052 0-1.802-.004-2.877-.011-3.226l-.011-.523h3.617v1.57h-.022c.147-.233.297-.437.45-.611.155-.174.362-.363.622-.567.26-.203.58-.361.957-.474a4.395 4.395 0 0 1 1.259-.169c1.253 0 2.261.413 3.023 1.237.763.825 1.144 2.033 1.144 3.624V22H20.27v-5.777c0-.763-.148-1.36-.445-1.792-.297-.433-.76-.649-1.39-.649-.463 0-.85.125-1.16.376a2.32 2.32 0 0 0-.699.932c-.08.218-.121.512-.121.883V22h-3.617z" fill="#2A9EF9" fill-rule="evenodd"/></svg>