<svg width="30" height="30" viewBox="0 0 30 30" xmlns="http://www.w3.org/2000/svg"><title>twitter_F</title><path d="M15 30c8.284 0 15-6.716 15-15 0-8.284-6.716-15-15-15C6.716 0 0 6.716 0 15c0 8.284 6.716 15 15 15zm-4.41-18.842c2.885 1.456 5.322 1.372 5.322 1.372s-.924-3.22 1.932-4.648c2.856-1.428 4.821.98 4.821.98s.498-.137.87-.274c.37-.136.908-.38.908-.38l-.88 1.57 1.355-.143s-.167.244-.71.741c-.542.498-.765.755-.765.755s.193 3.875-1.848 6.86c-2.042 2.984-4.68 4.775-8.512 5.152-3.833.377-6.328-1.176-6.328-1.176s1.676-.096 2.744-.504c1.068-.409 2.604-1.484 2.604-1.484s-2.184-.672-2.968-1.428c-.784-.756-.98-1.204-.98-1.204l2.156-.028s-2.268-1.204-2.912-2.156c-.644-.952-.728-1.876-.728-1.876l1.657.669s-1.377-1.873-1.573-3.33c-.196-1.455.252-2.24.252-2.24s.7 1.316 3.584 2.772z" fill="#2A9EF9" fill-rule="evenodd"/></svg>